<svg width="50" height="50" viewBox="0 0 50 50" fill="none" xmlns="http://www.w3.org/2000/svg">
<rect x="-1" y="1" width="48" height="48" rx="24" transform="matrix(-1 0 0 1 48 0)" fill="#FFD6BA" stroke="black" stroke-width="2"/>
<path d="M16.3087 23.9393C15.7229 24.5251 15.7229 25.4749 16.3087 26.0607L25.8546 35.6066C26.4404 36.1924 27.3902 36.1924 27.976 35.6066C28.5618 35.0208 28.5618 34.0711 27.976 33.4853L19.4907 25L27.976 16.5147C28.5618 15.9289 28.5618 14.9792 27.976 14.3934C27.3902 13.8076 26.4404 13.8076 25.8546 14.3934L16.3087 23.9393ZM18 25L18 23.5L17.3694 23.5L17.3694 25L17.3694 26.5L18 26.5L18 25Z" fill="black"/>
</svg>
