<svg width="50" height="50" viewBox="0 0 50 50" fill="none" xmlns="http://www.w3.org/2000/svg">
<rect x="1" y="1" width="48" height="48" rx="24" fill="#FFD6BA" stroke="black" stroke-width="2"/>
<path d="M33.6913 23.9393C34.2771 24.5251 34.2771 25.4749 33.6913 26.0607L24.1454 35.6066C23.5596 36.1924 22.6098 36.1924 22.024 35.6066C21.4382 35.0208 21.4382 34.0711 22.024 33.4853L30.5093 25L22.024 16.5147C21.4382 15.9289 21.4382 14.9792 22.024 14.3934C22.6098 13.8076 23.5596 13.8076 24.1454 14.3934L33.6913 23.9393ZM32 25L32 23.5L32.6306 23.5L32.6306 25L32.6306 26.5L32 26.5L32 25Z" fill="black"/>
</svg>
